<svg width="92" height="13" viewBox="0 0 92 13" fill="none" xmlns="http://www.w3.org/2000/svg">
<path d="M0.524438 12V0.639999H5.22844C7.11644 0.639999 8.62577 1.136 9.75644 2.128C10.8871 3.10933 11.4524 4.50667 11.4524 6.32C11.4524 8.144 10.8711 9.54667 9.70844 10.528C8.54577 11.5093 7.05244 12 5.22844 12H0.524438ZM5.18044 2.976H3.24444V9.664H5.18044C6.2471 9.664 7.0951 9.36533 7.72444 8.768C8.36444 8.17067 8.68444 7.35467 8.68444 6.32C8.68444 5.232 8.36977 4.40533 7.74044 3.84C7.1111 3.264 6.25777 2.976 5.18044 2.976Z" fill="#2B2D42"/>
<path d="M13.6651 12V0.639999H23.1691V2.88H16.3851V4.928H20.4331V7.216H16.3851V9.648H23.7931V12H13.6651ZM35.1672 9.6V12H25.7432V0.639999H28.4632V9.6H35.1672ZM37.1189 12V0.639999H39.8389V12H37.1189ZM54.0582 0.639999L49.3062 12.016H46.5062L41.5782 0.639999H44.6822L47.9782 8.656L51.2262 0.639999H54.0582ZM55.7588 12V0.639999H65.2628V2.88H58.4788V4.928H62.5268V7.216H58.4788V9.648H65.8868V12H55.7588ZM67.8369 12V0.639999H74.4929C75.7303 0.639999 76.7116 0.933333 77.4369 1.52C78.1729 2.10667 78.5409 3.00267 78.5409 4.208C78.5409 4.976 78.3596 5.632 77.9969 6.176C77.6343 6.72 77.0956 7.12 76.3809 7.376L78.9409 12H76.0769L73.6769 7.68H70.5569V12H67.8369ZM74.2049 2.976H70.5569V5.392H74.2049C75.2396 5.392 75.7569 4.99733 75.7569 4.208C75.7569 3.74933 75.6183 3.42933 75.3409 3.248C75.0743 3.06667 74.6956 2.976 74.2049 2.976ZM87.0059 7.232V12H84.1579V7.216L79.1179 0.639999H82.5739L85.6619 4.768L88.7659 0.639999H91.8219L87.0059 7.232Z" fill="#EF233C"/>
</svg>
