<svg width="14" height="12" viewBox="0 0 14 12" fill="none" xmlns="http://www.w3.org/2000/svg">
<path d="M12.9448 4.42817L11.9629 1.2221C11.739 0.490931 11.0652 0 10.2864 0H3.71362C2.93475 0 2.26098 0.490932 2.0371 1.2221L1.05524 4.42817C0.435254 4.69211 0 5.29651 0 6V9.42857C0 9.90193 0.391785 10.2857 0.875 10.2857H0.875053L0.875 11.1428C0.875 11.6162 1.26673 12 1.75 12H2.62505C3.10827 12 3.50005 11.6162 3.50005 11.1429L3.49968 10.2857H10.5L10.4999 11.1428C10.4999 11.6162 10.8917 12 11.3749 12H12.25C12.7333 12 13.125 11.6162 13.125 11.1429V10.2858L13.1247 10.2857H13.125C13.6082 10.2857 14 9.90192 14 9.42857V6C14 5.29651 13.5647 4.6921 12.9448 4.42817L12.9448 4.42817ZM3.7136 1.71429H10.2863L11.0739 4.28571H2.92607L3.71359 1.71429H3.7136ZM3.49997 8.14286C3.0167 8.14286 2.62497 7.75907 2.62497 7.28572C2.62497 6.81231 3.0167 6.42857 3.49997 6.42857C3.98324 6.42857 4.37497 6.81231 4.37497 7.28572C4.37497 7.75907 3.98324 8.14286 3.49997 8.14286ZM10.5 8.14286C10.0167 8.14286 9.62497 7.75907 9.62497 7.28572C9.62497 6.81231 10.0167 6.42857 10.5 6.42857C10.9832 6.42857 11.375 6.81231 11.375 7.28572C11.375 7.75907 10.9832 8.14286 10.5 8.14286Z" fill="white"/>
</svg>
