<svg width="16" height="16" viewBox="0 0 16 16" fill="none" xmlns="http://www.w3.org/2000/svg">
<path d="M5.66666 15.3333C6.58712 15.3333 7.33331 14.5871 7.33331 13.6667C7.33331 12.7462 6.58712 12 5.66666 12C4.74619 12 4 12.7462 4 13.6667C4 14.5871 4.74619 15.3333 5.66666 15.3333Z" fill="white"/>
<path d="M15.9333 2.80006C15.8667 2.7334 15.8 2.66672 15.6667 2.66672H3L2.66666 0.933404C2.6 0.800061 2.46666 0.666748 2.33331 0.666748H0.333313C0.133344 0.666717 0 0.800061 0 1.00006C0 1.20006 0.133344 1.3334 0.333344 1.3334H2.06669L3.66669 9.46675C3.93334 10.5334 4.86669 11.3334 6.00003 11.3334H13.6667C13.8667 11.3334 14 11.2001 14 11.0001C14 10.8001 13.8667 10.6667 13.6667 10.6667H6C5.46666 10.6667 4.93334 10.4001 4.66666 9.93337L14.4 8.60006C14.5333 8.60006 14.6667 8.46672 14.6667 8.3334L16 3.00006C16 3.00006 16 2.86672 15.9333 2.80006Z" fill="white"/>
<path d="M12.3334 15.3333C13.2539 15.3333 14.0001 14.5871 14.0001 13.6667C14.0001 12.7462 13.2539 12 12.3334 12C11.4129 12 10.6667 12.7462 10.6667 13.6667C10.6667 14.5871 11.4129 15.3333 12.3334 15.3333Z" fill="white"/>
</svg>
