<svg width="12" height="12" viewBox="0 0 12 12" fill="none" xmlns="http://www.w3.org/2000/svg">
<path d="M11.6464 1.56212C11.8417 1.36686 11.8417 1.05028 11.6464 0.855018L11.145 0.353553C10.9497 0.158291 10.6331 0.158291 10.4379 0.353554L6.35355 4.43788C6.15829 4.63314 5.84171 4.63314 5.64645 4.43788L1.56212 0.353553C1.36686 0.158291 1.05028 0.158291 0.855018 0.353553L0.353553 0.855018C0.158291 1.05028 0.158291 1.36686 0.353553 1.56212L4.43788 5.64645C4.63314 5.84171 4.63314 6.15829 4.43788 6.35355L0.353553 10.4379C0.158291 10.6331 0.158291 10.9497 0.353554 11.145L0.855018 11.6464C1.05028 11.8417 1.36686 11.8417 1.56212 11.6464L5.64645 7.56212C5.84171 7.36686 6.15829 7.36686 6.35355 7.56213L10.4379 11.6464C10.6331 11.8417 10.9497 11.8417 11.145 11.6464L11.6464 11.145C11.8417 10.9497 11.8417 10.6331 11.6464 10.4379L7.56212 6.35355C7.36686 6.15829 7.36686 5.84171 7.56213 5.64645L11.6464 1.56212Z" fill="#D80032"/>
</svg>
