<svg width="96" height="96" viewBox="0 0 96 96" fill="none" xmlns="http://www.w3.org/2000/svg">
<rect width="96" height="96" rx="48" fill="white"/>
<rect x="1" y="1" width="94" height="94" rx="47" stroke="#D80032" stroke-opacity="0.6" stroke-width="2"/>
<path d="M78.5989 62.0214H76.6171V50.9255C76.6138 49.6248 76.2226 48.3546 75.4936 47.2774L70.52 39.918C69.9223 39.0313 69.1158 38.3051 68.1715 37.8032C67.2272 37.3013 66.174 37.0392 65.1046 37.0399H57.4044C56.9725 37.0399 56.5584 37.2114 56.253 37.5168C55.9476 37.8222 55.776 38.2364 55.776 38.6683V61.9961H43.1527C44.3774 63.0506 45.1798 64.512 45.4123 66.1113H58.7046C58.945 64.5258 59.7458 63.079 60.9618 62.0336C62.1778 60.9881 63.7282 60.4131 65.3319 60.4131C66.9355 60.4131 68.486 60.9881 69.7019 62.0336C70.9179 63.079 71.7187 64.5258 71.9591 66.1113H78.5737C78.7913 66.1113 79 66.0249 79.1539 65.871C79.3078 65.7171 79.3942 65.5084 79.3942 65.2908V62.7661C79.3758 62.5662 79.2846 62.3799 79.138 62.2427C78.9915 62.1054 78.7997 62.0267 78.5989 62.0214ZM70.4695 48.7543H60.3078C60.1996 48.756 60.0921 48.7359 59.9918 48.6953C59.8915 48.6547 59.8003 48.5943 59.7238 48.5177C59.6473 48.4412 59.5869 48.3501 59.5463 48.2498C59.5056 48.1494 59.4856 48.042 59.4873 47.9338V42.2912C59.4873 42.0735 59.5737 41.8648 59.7276 41.711C59.8815 41.5571 60.0902 41.4706 60.3078 41.4706H66.4553C66.5857 41.4711 66.7142 41.5022 66.8304 41.5614C66.9466 41.6206 67.0473 41.7063 67.1244 41.8115L71.1007 47.4541C71.1875 47.5743 71.2401 47.7157 71.253 47.8634C71.2658 48.011 71.2384 48.1594 71.1737 48.2928C71.1089 48.4261 71.0093 48.5395 70.8853 48.6207C70.7613 48.702 70.6176 48.7481 70.4695 48.7543ZM65.4202 62.0214C64.4216 62.0214 63.4453 62.3175 62.615 62.8723C61.7846 63.4271 61.1374 64.2157 60.7553 65.1384C60.3731 66.061 60.2731 67.0763 60.4679 68.0558C60.6628 69.0352 61.1437 69.9349 61.8498 70.6411C62.556 71.3472 63.4557 71.8281 64.4352 72.023C65.4146 72.2178 66.4299 72.1178 67.3525 71.7356C68.2752 71.3535 69.0637 70.7063 69.6186 69.8759C70.1734 69.0456 70.4695 68.0693 70.4695 67.0707C70.4696 66.4033 70.3373 65.7426 70.0804 65.1267C69.8235 64.5107 69.4471 63.9518 68.9728 63.4823C68.4986 63.0128 67.936 62.6419 67.3175 62.3911C66.6991 62.1404 66.0371 62.0147 65.3697 62.0214H65.4202ZM65.4202 69.5953C64.9209 69.5953 64.4328 69.4473 64.0176 69.1699C63.6024 68.8925 63.2788 68.4981 63.0877 68.0368C62.8967 67.5755 62.8467 67.0679 62.9441 66.5781C63.0415 66.0884 63.2819 65.6385 63.635 65.2855C63.9881 64.9324 64.438 64.692 64.9277 64.5945C65.4174 64.4971 65.9251 64.5471 66.3864 64.7382C66.8477 64.9293 67.242 65.2529 67.5194 65.6681C67.7968 66.0832 67.9449 66.5713 67.9449 67.0707C67.95 67.4097 67.8869 67.7463 67.7591 68.0603C67.6314 68.3744 67.4417 68.6595 67.2013 68.8986C66.961 69.1378 66.675 69.3261 66.3603 69.4523C66.0456 69.5785 65.7087 69.64 65.3697 69.6332L65.4202 69.5953ZM23.1069 62.0214C22.9992 62.0214 22.8925 62.0426 22.7929 62.0838C22.6934 62.1251 22.6029 62.1855 22.5267 62.2617C22.4505 62.3379 22.3901 62.4283 22.3489 62.5279C22.3076 62.6274 22.2864 62.7341 22.2864 62.8419V65.3665C22.2864 65.4743 22.3076 65.581 22.3489 65.6805C22.3901 65.7801 22.4505 65.8705 22.5267 65.9467C22.6029 66.0229 22.6934 66.0833 22.7929 66.1246C22.8925 66.1658 22.9992 66.187 23.1069 66.187H32.2336C32.4649 64.5903 33.2623 63.1298 34.4805 62.0719H23.1195L23.1069 62.0214ZM38.8482 62.0214C37.8495 62.0214 36.8733 62.3175 36.0429 62.8723C35.2126 63.4271 34.5654 64.2157 34.1832 65.1384C33.801 66.061 33.7011 67.0763 33.8959 68.0558C34.0907 69.0352 34.5716 69.9349 35.2778 70.6411C35.9839 71.3472 36.8836 71.8281 37.8631 72.023C38.8426 72.2178 39.8578 72.1178 40.7805 71.7356C41.7031 71.3535 42.4917 70.7063 43.0465 69.8759C43.6014 69.0456 43.8975 68.0693 43.8975 67.0707C43.8975 66.4033 43.7653 65.7426 43.5084 65.1267C43.2515 64.5107 42.875 63.9518 42.4008 63.4823C41.9265 63.0128 41.3639 62.6419 40.7455 62.3911C40.127 62.1404 39.465 62.0147 38.7977 62.0214H38.8482ZM38.8482 69.5953C38.3489 69.5953 37.8607 69.4473 37.4456 69.1699C37.0304 68.8925 36.7068 68.4981 36.5157 68.0368C36.3246 67.5755 36.2746 67.0679 36.372 66.5781C36.4694 66.0884 36.7099 65.6385 37.063 65.2855C37.4161 64.9324 37.8659 64.692 38.3556 64.5945C38.8454 64.4971 39.353 64.5471 39.8143 64.7382C40.2757 64.9293 40.6699 65.2529 40.9474 65.6681C41.2248 66.0832 41.3728 66.5713 41.3728 67.0707C41.378 67.4097 41.3148 67.7463 41.1871 68.0603C41.0593 68.3744 40.8696 68.6595 40.6293 68.8986C40.389 69.1378 40.1029 69.3261 39.7882 69.4523C39.4735 69.5785 39.1367 69.64 38.7977 69.6332L38.8482 69.5953ZM51.0549 31.9527H41.6001C42.0722 33.3646 42.311 34.8442 42.307 36.333C42.3055 38.5127 41.7941 40.6619 40.8137 42.6088C39.8333 44.5556 38.4111 46.2461 36.6606 47.5451C34.9102 48.8441 32.8802 49.7157 30.7328 50.09C28.5854 50.4643 26.3802 50.3311 24.2935 49.701V58.7141C24.2935 58.9317 24.38 59.1404 24.5338 59.2943C24.6877 59.4481 24.8964 59.5346 25.114 59.5346H52.6959C52.9136 59.5346 53.1222 59.4481 53.2761 59.2943C53.43 59.1404 53.5165 58.9317 53.5165 58.7141V34.4395C53.5166 34.1125 53.4512 33.7888 53.3242 33.4875C53.1972 33.1862 53.0111 32.9134 52.777 32.6851C52.5429 32.4569 52.2654 32.2778 51.961 32.1585C51.6565 32.0392 51.3313 31.9821 51.0044 31.9905L51.0549 31.9527ZM28.333 24C25.8937 24 23.5093 24.7233 21.4812 26.0785C19.453 27.4336 17.8722 29.3598 16.9388 31.6133C16.0053 33.8669 15.7611 36.3466 16.237 38.739C16.7129 41.1314 17.8875 43.3289 19.6123 45.0537C21.337 46.7785 23.5346 47.9531 25.9269 48.4289C28.3193 48.9048 30.799 48.6606 33.0526 47.7271C35.3061 46.7937 37.2323 45.2129 38.5875 43.1848C39.9426 41.1566 40.6659 38.7722 40.6659 36.333C40.661 34.7134 40.337 33.1106 39.7127 31.6162C39.0883 30.1218 38.1757 28.765 37.0269 27.6233C35.8782 26.4816 34.5158 25.5773 33.0176 24.9622C31.5194 24.347 29.9147 24.0329 28.2951 24.0379L28.333 24ZM28.333 45.8635C26.448 45.8635 24.6053 45.3046 23.038 44.2573C21.4708 43.2101 20.2492 41.7216 19.5278 39.9802C18.8065 38.2387 18.6178 36.3224 18.9855 34.4736C19.3532 32.6249 20.261 30.9267 21.5938 29.5938C22.9267 28.2609 24.6249 27.3532 26.4736 26.9855C28.3224 26.6178 30.2387 26.8065 31.9802 27.5278C33.7216 28.2492 35.2101 29.4707 36.2574 31.038C37.3046 32.6053 37.8636 34.448 37.8636 36.333C37.8686 37.5909 37.6245 38.8374 37.1454 40.0006C36.6663 41.1637 35.9617 42.2205 35.0722 43.1101C34.1827 43.9996 33.1259 44.7042 31.9627 45.1833C30.7996 45.6623 29.5531 45.9064 28.2951 45.9014L28.333 45.8635ZM31.9685 38.2896C31.8637 38.3028 31.7577 38.3028 31.6529 38.2896L27.6766 37.2166C27.4184 37.1414 27.1911 36.9857 27.0276 36.7723C26.8641 36.5588 26.7731 36.2988 26.7677 36.03V29.9708C26.8361 29.6979 26.9937 29.4556 27.2156 29.2825C27.4374 29.1094 27.7107 29.0154 27.9921 29.0154C28.2735 29.0154 28.5469 29.1094 28.7687 29.2825C28.9906 29.4556 29.1482 29.6979 29.2166 29.9708V35.1464L32.2841 35.9795C32.5376 36.0875 32.7489 36.2754 32.8857 36.5147C33.0224 36.754 33.077 37.0315 33.0412 37.3048C33.0055 37.5781 32.8813 37.8321 32.6876 38.0282C32.4939 38.2242 32.2413 38.3515 31.9685 38.3905V38.2896Z" fill="#D80032" fill-opacity="0.6"/>
</svg>
