<svg width="96" height="96" viewBox="0 0 96 96" fill="none" xmlns="http://www.w3.org/2000/svg">
<rect width="96" height="96" rx="48" fill="white"/>
<rect x="1" y="1" width="94" height="94" rx="47" stroke="#D80032" stroke-opacity="0.6" stroke-width="2"/>
<path d="M64.6341 24H33.3054C32.1015 24.0001 30.9346 24.4162 30.0023 25.1778C29.07 25.9394 28.4295 26.9999 28.1893 28.1795H31.2098C31.4861 28.1795 31.7511 28.2893 31.9465 28.4847C32.1419 28.6801 32.2517 28.9451 32.2517 29.2215C32.2517 29.4978 32.1419 29.7628 31.9465 29.9582C31.7511 30.1536 31.4861 30.2634 31.2098 30.2634H27.042C26.7656 30.2634 26.5006 30.3732 26.3052 30.5686C26.1098 30.764 26 31.029 26 31.3054C26 31.5817 26.1098 31.8467 26.3052 32.0421C26.5006 32.2375 26.7656 32.3473 27.042 32.3473H28.0839V36.5268H31.2098C31.4861 36.5268 31.7511 36.6366 31.9465 36.832C32.1419 37.0274 32.2517 37.2924 32.2517 37.5688C32.2517 37.8451 32.1419 38.1102 31.9465 38.3056C31.7511 38.501 31.4861 38.6107 31.2098 38.6107H27.042C26.7656 38.6107 26.5006 38.7205 26.3052 38.9159C26.1098 39.1113 26 39.3763 26 39.6527C26 39.929 26.1098 40.1941 26.3052 40.3895C26.5006 40.5849 26.7656 40.6946 27.042 40.6946H28.0839V44.8741H31.2098C31.4861 44.8741 31.7511 44.9839 31.9465 45.1793C32.1419 45.3747 32.2517 45.6398 32.2517 45.9161C32.2517 46.1924 32.1419 46.4575 31.9465 46.6529C31.7511 46.8483 31.4861 46.958 31.2098 46.958H27.042C26.7656 46.958 26.5006 47.0678 26.3052 47.2632C26.1098 47.4586 26 47.7237 26 48C26 48.2763 26.1098 48.5414 26.3052 48.7368C26.5006 48.9322 26.7656 49.042 27.042 49.042H28.0839V53.2683H31.2098C31.4861 53.2683 31.7511 53.3781 31.9465 53.5735C32.1419 53.7689 32.2517 54.0339 32.2517 54.3102C32.2517 54.5866 32.1419 54.8516 31.9465 55.047C31.7511 55.2424 31.4861 55.3522 31.2098 55.3522H27.042C26.7656 55.3522 26.5006 55.462 26.3052 55.6574C26.1098 55.8528 26 56.1178 26 56.3941C26 56.6705 26.1098 56.9355 26.3052 57.1309C26.5006 57.3263 26.7656 57.4361 27.042 57.4361H28.0839V61.6156H31.2098C31.4861 61.6156 31.7511 61.7254 31.9465 61.9208C32.1419 62.1162 32.2517 62.3812 32.2517 62.6576C32.2517 62.9339 32.1419 63.1989 31.9465 63.3943C31.7511 63.5897 31.4861 63.6995 31.2098 63.6995H27.042C26.7656 63.6995 26.5006 63.8093 26.3052 64.0047C26.1098 64.2001 26 64.4651 26 64.7415C26 65.0178 26.1098 65.2828 26.3052 65.4782C26.5006 65.6736 26.7656 65.7834 27.042 65.7834H28.0839V66.8254C28.0962 68.2021 28.6518 69.5182 29.6297 70.4873C30.6076 71.4564 31.9286 72.0001 33.3054 72H64.6341C66.019 72 67.3471 71.4499 68.3263 70.4707C69.3055 69.4915 69.8556 68.1633 69.8556 66.7785V29.2215C69.8556 27.8367 69.3055 26.5085 68.3263 25.5293C67.3471 24.5501 66.019 24 64.6341 24ZM48.1385 43.7971C48.1397 44.6855 47.8734 45.5536 47.3744 46.2886C46.8753 47.0236 46.1666 47.5914 45.3405 47.918L46.359 61.3346C46.297 61.9934 45.9914 62.6054 45.5021 63.0508C45.0128 63.4962 44.3749 63.743 43.7132 63.743C43.0515 63.743 42.4136 63.4962 41.9243 63.0508C41.4349 62.6054 41.1294 61.9934 41.0673 61.3346L42.0858 47.918C41.2597 47.5914 40.551 47.0236 40.052 46.2886C39.5529 45.5536 39.2867 44.6855 39.2878 43.7971V35.122H41.0556V43.6215H42.8234V35.122H44.5912V43.6215H46.359V35.122H48.1268L48.1385 43.7971ZM57.3756 47.9298L58.3941 61.3346C58.3321 61.9934 58.0265 62.6054 57.5372 63.0508C57.0479 63.4962 56.41 63.743 55.7483 63.743C55.0866 63.743 54.4487 63.4962 53.9594 63.0508C53.47 62.6054 53.1645 61.9934 53.1024 61.3346L54.0976 47.9298C52.8989 47.3948 51.8891 46.511 51.2 45.3938C50.5109 44.2766 50.1743 42.9776 50.2341 41.6663C50.2341 38.0488 52.6927 35.1102 55.7249 35.1102C58.7571 35.1102 61.2156 38.0488 61.2156 41.6663C61.2774 42.975 60.9443 44.2721 60.2595 45.389C59.5747 46.5059 58.5699 47.3912 57.3756 47.9298Z" fill="#D80032" fill-opacity="0.6"/>
</svg>
