<svg width="96" height="96" viewBox="0 0 96 96" fill="none" xmlns="http://www.w3.org/2000/svg">
<rect width="96" height="96" rx="48" fill="white"/>
<rect x="1" y="1" width="94" height="94" rx="47" stroke="#D80032" stroke-opacity="0.6" stroke-width="2"/>
<path d="M67.1136 46.2202C65.4989 47.9083 64.1955 49.8688 63.2638 52.011C63.0444 52.5554 62.6673 53.0219 62.1808 53.3503C61.6943 53.6788 61.1207 53.8543 60.5337 53.8543C59.9467 53.8543 59.3731 53.6788 58.8867 53.3503C58.4002 53.0219 58.023 52.5554 57.8036 52.011C56.7023 49.5605 55.1545 47.3364 53.2393 45.4524C52.8234 44.9832 52.3968 44.5246 51.9809 44.0447H51.9169C51.0476 44.3493 50.3348 44.9865 49.9349 45.8163C49.535 46.6461 49.4807 47.6007 49.784 48.4704C50.2959 49.6755 53.9218 49.4515 53.6125 52.0536C53.3566 54.1865 56.14 54.7517 57.1318 54.6451C58.1236 54.5385 59.6379 56.2661 58.8701 57.0339C58.1022 57.8017 56.6732 57.8337 56.8972 59.8066C56.9612 60.3825 58.6994 60.3079 58.6994 61.1824C58.6994 62.0568 57.8036 63.0593 58.4968 64.0724C58.6261 64.2691 58.7843 64.4453 58.9661 64.595C55.7268 67.5613 51.5464 69.2923 47.1584 69.4844C42.7703 69.6765 38.4547 68.3175 34.9685 65.6456C31.4824 62.9737 29.0483 59.1597 28.0933 54.8725C27.1383 50.5853 27.7232 46.0987 29.7457 42.1998C29.7738 44.7638 30.7024 47.2363 32.3691 49.1849C35.1098 51.9257 39.0983 51.0619 39.5995 53.3547C40.1008 55.6475 36.8695 55.6475 37.0827 57.3965C37.296 59.1455 41.5298 59.6147 40.5913 61.2357C39.3436 63.3685 41.4338 63.5392 40.8259 66.1839C40.506 67.6343 42.5856 67.9116 43.3641 66.8132C43.9506 65.9707 43.8333 64.9362 45.0277 63.6778C46.4781 62.1315 49.8587 61.8755 49.4748 59.3161C48.8349 55.0503 44.6971 54.3998 42.8948 53.408C40.8473 52.2883 41.3485 49.5902 40.9113 48.3105C40.2927 46.4868 38.1918 48.8223 37.0614 47.7559C35.2165 46.0176 37.392 43.5541 38.9384 43.5968C42.2123 43.7034 43.2041 46.8814 44.4198 46.7961C45.6356 46.7108 46.3501 45.0578 46.5527 44.1833C46.99 42.2851 45.8169 43.1169 45.3476 42.1464C44.7078 40.8241 47.5765 39.5657 48.6856 38.5845C48.8314 38.4698 48.9544 38.3287 49.0482 38.1686C49.3788 37.5181 48.9415 37.0275 48.2057 36.5796C46.734 35.6838 44.0359 34.98 43.9399 33.5829C43.8653 32.7298 45.5076 32.3139 47.3739 32.2392L48.3017 32.3139C48.4576 31.4329 48.7079 30.5712 49.0482 29.7438C48.1467 29.6238 47.2382 29.5633 46.3288 29.5625C42.1103 29.5625 37.9866 30.8134 34.4791 33.157C30.9716 35.5006 28.2379 38.8317 26.6236 42.7291C25.0092 46.6264 24.5869 50.9149 25.4098 55.0523C26.2328 59.1896 28.2642 62.9901 31.2471 65.9729C34.2299 68.9558 38.0304 70.9872 42.1677 71.8102C46.3051 72.6331 50.5936 72.2108 54.4909 70.5964C58.3882 68.9821 61.7193 66.2483 64.063 62.7408C66.4066 59.2334 67.6575 55.1097 67.6575 50.8912C67.6524 49.3187 67.47 47.7518 67.1136 46.2202ZM59.5313 24.049C58.1022 24.2174 56.723 24.6776 55.4791 25.4011C54.2353 26.1245 53.1534 27.0958 52.3004 28.2547C51.4475 29.4137 50.8418 30.7355 50.5208 32.1381C50.1998 33.5408 50.1705 34.9945 50.4346 36.409C51.501 42.4664 57.0785 44.322 59.8512 51.1152C59.906 51.2513 60.0003 51.3679 60.122 51.45C60.2436 51.5321 60.387 51.576 60.5337 51.576C60.6805 51.576 60.8239 51.5321 60.9455 51.45C61.0671 51.3679 61.1614 51.2513 61.2162 51.1152C64.2876 43.5755 70.8142 42.1145 70.8142 34.2655C70.8121 32.8321 70.5103 31.4151 69.9282 30.1053C69.3461 28.7955 68.4965 27.6219 67.434 26.6599C66.3716 25.6978 65.1197 24.9686 63.7587 24.5189C62.3977 24.0693 60.9578 23.9092 59.5313 24.049ZM60.5337 39.7043C59.4601 39.7043 58.4106 39.3859 57.518 38.7895C56.6253 38.193 55.9296 37.3453 55.5187 36.3534C55.1079 35.3615 55.0004 34.2701 55.2099 33.2171C55.4193 32.1642 55.9363 31.197 56.6954 30.4378C57.4546 29.6787 58.4218 29.1617 59.4747 28.9523C60.5277 28.7428 61.6191 28.8503 62.611 29.2612C63.6029 29.672 64.4506 30.3677 65.0471 31.2604C65.6435 32.1531 65.9619 33.2025 65.9619 34.2761C65.9689 34.9934 65.8337 35.705 65.5641 36.3698C65.2945 37.0345 64.8957 37.6392 64.391 38.1489C63.8862 38.6587 63.2855 39.0633 62.6234 39.3394C61.9613 39.6155 61.2511 39.7577 60.5337 39.7576V39.7043Z" fill="#D80032" fill-opacity="0.6"/>
</svg>
