<svg width="59" height="80" viewBox="0 0 59 80" fill="none" xmlns="http://www.w3.org/2000/svg">
<path d="M29.0226 0C13.0194 0 0 13.0194 0 29.0225C0 35.4314 1.46798 42.0549 4.36314 48.7091C6.65253 53.9713 9.83644 59.266 13.8261 64.4462C20.591 73.2297 27.2787 78.6078 27.56 78.8325L29.0223 80L30.4846 78.8325C30.7659 78.6078 37.4536 73.2297 44.2185 64.4462C48.208 59.266 51.3919 53.9713 53.6815 48.7091C56.5766 42.0549 58.0446 35.4312 58.0446 29.0225C58.0449 13.0194 45.0256 0 29.0226 0ZM30.5672 24.6445V26.9884C30.5672 30.9811 27.8668 34.3528 24.1973 35.3794V52.7338H19.5095V35.379C15.8401 34.3526 13.1397 30.9809 13.1397 26.9881V24.6442V17.8838H17.8276V24.6442H19.5096V17.8838H24.1974V24.6442H25.8796V17.8838H30.5673V24.6445H30.5672ZM44.9052 33.6581C44.9052 37.5917 42.2517 40.9152 38.6414 41.9388V52.7336H33.9536V42.2658V38.0453V17.886H36.2975C41.0436 17.886 44.9052 21.7474 44.9052 26.4937V33.6581Z" fill="#2B2D42"/>
</svg>
