<svg width="15" height="14" viewBox="0 0 15 14" fill="none" xmlns="http://www.w3.org/2000/svg">
<path d="M14.6552 5.31616C14.6046 5.16049 14.4701 5.04703 14.3081 5.02353L9.75843 4.36238L7.72369 0.239663C7.65128 0.0929015 7.5018 0 7.33815 0C7.17448 0 7.02502 0.0929015 6.95258 0.239663L4.91775 4.36238L0.368134 5.02353C0.206208 5.04703 0.0716287 5.16049 0.0210646 5.31614C-0.0295282 5.47181 0.0126659 5.64268 0.129875 5.75691L3.42193 8.96601L2.64489 13.4974C2.6172 13.6587 2.68353 13.8217 2.81593 13.9179C2.89083 13.9723 2.97955 14 3.0687 14C3.13715 14 3.20583 13.9837 3.26872 13.9506L7.33812 11.8112L11.4074 13.9506C11.5523 14.0267 11.7278 14.0141 11.8602 13.9179C11.9926 13.8217 12.0589 13.6586 12.0313 13.4973L11.254 8.96601L14.5464 5.75688C14.6636 5.64268 14.7058 5.47181 14.6552 5.31616Z" fill="#2B2D42"/>
</svg>
