<svg width="22" height="13" viewBox="0 0 22 13" fill="none" xmlns="http://www.w3.org/2000/svg">
<path d="M20.921 11.5039C20.8955 11.4491 20.8718 11.4035 20.8498 11.3671C20.4848 10.7098 19.7875 9.90314 18.7582 8.94675L18.7364 8.92485L18.7255 8.91411L18.7145 8.9031H18.7035C18.2363 8.45775 17.9405 8.15831 17.8166 8.00501C17.5899 7.71297 17.5391 7.41736 17.663 7.11784C17.7505 6.89155 18.0793 6.41364 18.6486 5.68347C18.948 5.2965 19.1852 4.98636 19.3603 4.75269C20.6234 3.07349 21.171 2.00046 21.003 1.53318L20.9377 1.42398C20.8939 1.35824 20.7808 1.2981 20.5984 1.24325C20.4157 1.18851 20.1822 1.17946 19.8974 1.21594L16.7437 1.23772C16.6926 1.21962 16.6196 1.22131 16.5246 1.24325C16.4296 1.26519 16.3822 1.27619 16.3822 1.27619L16.3273 1.30362L16.2837 1.33657C16.2472 1.35835 16.207 1.39667 16.1632 1.45144C16.1196 1.50602 16.0831 1.57007 16.0539 1.64306C15.7106 2.52643 15.3202 3.34773 14.8821 4.10694C14.6119 4.55965 14.3638 4.95199 14.1373 5.28419C13.911 5.61627 13.7212 5.86094 13.568 6.01777C13.4146 6.17476 13.2761 6.30053 13.1518 6.39553C13.0276 6.49058 12.9328 6.53074 12.8672 6.51605C12.8014 6.50136 12.7395 6.48678 12.6809 6.47221C12.5787 6.40647 12.4966 6.31706 12.4346 6.20391C12.3724 6.09076 12.3305 5.94835 12.3086 5.77678C12.2868 5.60511 12.2739 5.45744 12.2703 5.33328C12.2668 5.20928 12.2684 5.03388 12.2758 4.80758C12.2834 4.58117 12.2868 4.42798 12.2868 4.34766C12.2868 4.0702 12.2922 3.76907 12.3031 3.4442C12.3141 3.11933 12.3231 2.86192 12.3305 2.67229C12.338 2.48247 12.3414 2.28164 12.3414 2.06992C12.3414 1.8582 12.3286 1.69216 12.3031 1.57165C12.2779 1.45129 12.2393 1.33446 12.1884 1.22119C12.1372 1.10804 12.0623 1.02052 11.9639 0.958382C11.8654 0.896322 11.7429 0.847074 11.5971 0.810483C11.2101 0.722917 10.7174 0.675548 10.1186 0.668184C8.76077 0.653609 7.8883 0.741289 7.50137 0.931111C7.34806 1.01131 7.20933 1.12089 7.08529 1.25951C6.95384 1.42018 6.93551 1.50786 7.0304 1.52228C7.4685 1.58791 7.77864 1.7449 7.96117 1.9931L8.02695 2.12462C8.07812 2.21951 8.12921 2.38751 8.18034 2.62838C8.23139 2.86925 8.26433 3.13571 8.27883 3.42759C8.31527 3.96062 8.31527 4.41689 8.27883 4.79646C8.24228 5.17618 8.20776 5.47178 8.17481 5.6835C8.14186 5.89523 8.09262 6.06679 8.02695 6.19816C7.96117 6.32956 7.91741 6.40988 7.89547 6.43903C7.87357 6.46818 7.85531 6.48655 7.84081 6.49376C7.74592 6.53012 7.64723 6.54865 7.54509 6.54865C7.4428 6.54865 7.31876 6.49748 7.17278 6.39523C7.02683 6.29297 6.87537 6.15251 6.71838 5.97362C6.56139 5.7947 6.38434 5.54466 6.18716 5.22347C5.99012 4.90228 5.78569 4.52268 5.57397 4.08466L5.3988 3.767C5.28929 3.56264 5.13971 3.26508 4.94989 2.87458C4.75995 2.48393 4.59207 2.10605 4.44613 1.74102C4.38779 1.58772 4.30014 1.471 4.18335 1.39069L4.12854 1.35774C4.0921 1.32859 4.03361 1.29764 3.95337 1.26465C3.87302 1.2317 3.78917 1.20808 3.70149 1.19354L0.700984 1.21532C0.394371 1.21532 0.186331 1.28479 0.0767876 1.42352L0.0329473 1.48914C0.0110464 1.5257 0 1.58407 0 1.66443C0 1.74474 0.021901 1.84332 0.0657412 1.96003C0.503761 2.98949 0.980097 3.98233 1.49475 4.93868C2.0094 5.89503 2.45663 6.6654 2.83616 7.2491C3.21576 7.83321 3.60269 8.3845 3.99694 8.90268C4.3912 9.42105 4.65217 9.75325 4.77986 9.89919C4.9077 10.0454 5.00811 10.1547 5.0811 10.2277L5.35492 10.4905C5.53013 10.6657 5.78742 10.8756 6.1269 11.1201C6.46646 11.3648 6.84238 11.6057 7.25486 11.8431C7.66741 12.0802 8.14735 12.2737 8.69495 12.4233C9.24247 12.5731 9.77538 12.6332 10.2938 12.6042H11.5531C11.8085 12.5821 12.002 12.5018 12.1336 12.3632L12.1771 12.3083C12.2064 12.2647 12.2339 12.197 12.2592 12.1059C12.2848 12.0147 12.2975 11.9142 12.2975 11.8048C12.29 11.4909 12.3139 11.2081 12.3686 10.9562C12.4231 10.7045 12.4854 10.5146 12.5549 10.3868C12.6245 10.2591 12.7029 10.1513 12.7903 10.0639C12.8778 9.97636 12.9402 9.92332 12.9768 9.90506C13.0131 9.88669 13.0422 9.87422 13.0641 9.86674C13.2393 9.80836 13.4455 9.8649 13.683 10.0366C13.9203 10.2082 14.1428 10.42 14.351 10.6718C14.5591 10.9238 14.8091 11.2065 15.1011 11.5204C15.3932 11.8343 15.6487 12.0677 15.8676 12.2213L16.0865 12.3527C16.2328 12.4404 16.4226 12.5207 16.6562 12.5937C16.8895 12.6666 17.0938 12.6849 17.2693 12.6484L20.0726 12.6047C20.3499 12.6047 20.5656 12.5588 20.7187 12.4677C20.872 12.3764 20.9631 12.2759 20.9925 12.1665C21.0218 12.0571 21.0234 11.9329 20.998 11.794C20.9721 11.6555 20.9465 11.5587 20.921 11.5039Z" fill="#2B2D42"/>
</svg>
