<svg width="17" height="16" viewBox="0 0 17 16" fill="none" xmlns="http://www.w3.org/2000/svg">
<path fill-rule="evenodd" clip-rule="evenodd" d="M0.333252 3C0.333252 1.34315 1.6764 0 3.33325 0H13.3333C14.9901 0 16.3333 1.34315 16.3333 3V13C16.3333 14.6569 14.9901 16 13.3333 16H3.33325C1.6764 16 0.333252 14.6569 0.333252 13V3ZM12.6666 4.66667C13.2189 4.66667 13.6666 4.21895 13.6666 3.66667C13.6666 3.11438 13.2189 2.66667 12.6666 2.66667C12.1143 2.66667 11.6666 3.11438 11.6666 3.66667C11.6666 4.21895 12.1143 4.66667 12.6666 4.66667ZM12.3333 8C12.3333 10.209 10.5423 12 8.33325 12C6.12425 12 4.33325 10.209 4.33325 8C4.33325 5.791 6.12425 4 8.33325 4C10.5423 4 12.3333 5.791 12.3333 8ZM10.8333 8C10.8333 6.622 9.71125 5.5 8.33325 5.5C6.95525 5.5 5.83325 6.622 5.83325 8C5.83325 9.379 6.95525 10.5 8.33325 10.5C9.71125 10.5 10.8333 9.379 10.8333 8Z" fill="#2B2D42"/>
</svg>
