<svg width="9" height="8" viewBox="0 0 9 8" fill="none" xmlns="http://www.w3.org/2000/svg">
<g opacity="0.8">
<path d="M8.31304 6.12153L5.31414 0.608771C4.83231 -0.202385 3.65777 -0.203462 3.1753 0.608771L0.176535 6.12153C-0.316018 6.95039 0.280315 8 1.24571 8H7.24362C8.2082 8 8.8056 6.95124 8.31304 6.12153ZM4.24472 7.00514C3.9705 7.00514 3.74729 6.78193 3.74729 6.50772C3.74729 6.2335 3.9705 6.01029 4.24472 6.01029C4.51893 6.01029 4.74214 6.2335 4.74214 6.50772C4.74214 6.78193 4.51893 7.00514 4.24472 7.00514ZM4.74214 5.01543C4.74214 5.28965 4.51893 5.51286 4.24472 5.51286C3.9705 5.51286 3.74729 5.28965 3.74729 5.01543V2.5283C3.74729 2.25408 3.9705 2.03087 4.24472 2.03087C4.51893 2.03087 4.74214 2.25408 4.74214 2.5283V5.01543Z" fill="#D80032"/>
</g>
</svg>
